<?xml version="1.0" encoding="utf-8"?>
<svg viewBox="0 0 172.582 26" xmlns="http://www.w3.org/2000/svg" xmlns:bx="https://boxy-svg.com">
  <defs>
    <style bx:fonts="Roboto">@import url(https://fonts.googleapis.com/css2?family=Roboto%3Aital%2Cwght%400%2C100%3B0%2C300%3B0%2C400%3B0%2C500%3B0%2C700%3B0%2C900%3B1%2C100%3B1%2C300%3B1%2C400%3B1%2C500%3B1%2C700%3B1%2C900&amp;display=swap);</style>
  </defs>
  <path d="M12.651 0C8.697 0 3.927.93 0 2.977c0 4.42-.054 15.433 12.651 22.958C25.357 18.41 25.303 7.397 25.303 2.977 21.376.93 16.606 0 12.651 0z" style="fill: rgb(231, 55, 73);"/>
  <path d="M12.638 25.927C-.054 18.403 0 7.396 0 2.977 3.923.932 8.687.002 12.638 0v25.927z" style="fill: rgb(196, 44, 52);"/>
  <path fill="#fff" d="M12.19 17.305l7.65-10.311c-.56-.45-1.052-.133-1.323.113h-.01l-6.379 6.636-2.403-2.892c-1.147-1.325-2.705-.314-3.07-.047l5.535 6.5"/>
  <text style="fill: rgb(35, 35, 35); font-family: Roboto; font-size: 16px; font-weight: 700; white-space: pre;" x="-0.076" y="-12.253"><tspan x="34.146" y="18.88" style="font-size: 16px; word-spacing: 0px;">Premium </tspan><tspan style="font-weight: 400; font-size: 16px; word-spacing: 0px;">AdBlock</tspan></text>
</svg>